<mxfile host="65bd71144e">
    <diagram id="qkO7LGIEoC-xbC0iMFZt" name="Página-1">
        <mxGraphModel dx="1838" dy="778" grid="1" gridSize="10" guides="1" tooltips="1" connect="1" arrows="1" fold="1" page="1" pageScale="1" pageWidth="827" pageHeight="1169" math="0" shadow="0">
            <root>
                <mxCell id="0"/>
                <mxCell id="1" parent="0"/>
                <mxCell id="34" value="&lt;br&gt;" style="whiteSpace=wrap;html=1;aspect=fixed;shadow=0;glass=0;sketch=0;fillColor=#9933FF;" vertex="1" parent="1">
                    <mxGeometry x="30" y="30" width="280" height="280" as="geometry"/>
                </mxCell>
                <mxCell id="35" value="BANNERS" style="whiteSpace=wrap;html=1;aspect=fixed;shadow=0;glass=0;sketch=0;fillColor=default;" vertex="1" parent="1">
                    <mxGeometry x="40" y="40" width="80" height="80" as="geometry"/>
                </mxCell>
                <mxCell id="36" value="BLOGS" style="whiteSpace=wrap;html=1;aspect=fixed;shadow=0;glass=0;sketch=0;fillColor=default;" vertex="1" parent="1">
                    <mxGeometry x="220" y="40" width="80" height="80" as="geometry"/>
                </mxCell>
                <mxCell id="37" value="CURSOS" style="whiteSpace=wrap;html=1;aspect=fixed;shadow=0;glass=0;sketch=0;fillColor=default;" vertex="1" parent="1">
                    <mxGeometry x="130" y="204" width="80" height="80" as="geometry"/>
                </mxCell>
                <mxCell id="38" value="ACTION TO ACTION" style="whiteSpace=wrap;html=1;aspect=fixed;shadow=0;glass=0;sketch=0;fillColor=default;" vertex="1" parent="1">
                    <mxGeometry x="40" y="204" width="80" height="80" as="geometry"/>
                </mxCell>
                <mxCell id="39" value="RESUMO QUEM SOMOS" style="whiteSpace=wrap;html=1;aspect=fixed;shadow=0;glass=0;sketch=0;fillColor=default;" vertex="1" parent="1">
                    <mxGeometry x="130" y="40" width="80" height="80" as="geometry"/>
                </mxCell>
                <mxCell id="40" value="PROMOÇÕES" style="whiteSpace=wrap;html=1;aspect=fixed;shadow=0;glass=0;sketch=0;fillColor=default;" vertex="1" parent="1">
                    <mxGeometry x="220" y="204" width="80" height="80" as="geometry"/>
                </mxCell>
                <mxCell id="41" value="HOME" style="text;html=1;strokeColor=#6F0000;fillColor=#a20025;align=center;verticalAlign=middle;whiteSpace=wrap;rounded=0;shadow=0;glass=0;sketch=0;fontColor=#ffffff;" vertex="1" parent="1">
                    <mxGeometry x="150" y="155" width="60" height="30" as="geometry"/>
                </mxCell>
                <mxCell id="44" value="&lt;br&gt;" style="whiteSpace=wrap;html=1;aspect=fixed;shadow=0;glass=0;sketch=0;fillColor=#9933FF;" vertex="1" parent="1">
                    <mxGeometry x="340" y="30" width="280" height="280" as="geometry"/>
                </mxCell>
                <mxCell id="45" value="HISTORIA&lt;br&gt;EMPRESA" style="whiteSpace=wrap;html=1;aspect=fixed;shadow=0;glass=0;sketch=0;fillColor=default;" vertex="1" parent="1">
                    <mxGeometry x="440" y="50" width="80" height="80" as="geometry"/>
                </mxCell>
                <mxCell id="46" value="MISSÃO" style="whiteSpace=wrap;html=1;aspect=fixed;shadow=0;glass=0;sketch=0;fillColor=default;" vertex="1" parent="1">
                    <mxGeometry x="350" y="200" width="80" height="80" as="geometry"/>
                </mxCell>
                <mxCell id="47" value="VISÃO" style="whiteSpace=wrap;html=1;aspect=fixed;shadow=0;glass=0;sketch=0;fillColor=default;" vertex="1" parent="1">
                    <mxGeometry x="450" y="200" width="80" height="80" as="geometry"/>
                </mxCell>
                <mxCell id="48" value="VALORES" style="whiteSpace=wrap;html=1;aspect=fixed;shadow=0;glass=0;sketch=0;fillColor=default;" vertex="1" parent="1">
                    <mxGeometry x="540" y="200" width="80" height="80" as="geometry"/>
                </mxCell>
                <mxCell id="52" value="QUEM SOMOS" style="text;html=1;strokeColor=#6F0000;fillColor=#a20025;align=center;verticalAlign=middle;whiteSpace=wrap;rounded=0;shadow=0;glass=0;sketch=0;fontColor=#ffffff;" vertex="1" parent="1">
                    <mxGeometry x="430" y="140" width="100" height="30" as="geometry"/>
                </mxCell>
                <mxCell id="53" value="&lt;br&gt;" style="whiteSpace=wrap;html=1;aspect=fixed;shadow=0;glass=0;sketch=0;fillColor=#9933FF;" vertex="1" parent="1">
                    <mxGeometry x="650" y="30" width="280" height="280" as="geometry"/>
                </mxCell>
                <mxCell id="54" value="CURSOS" style="text;html=1;strokeColor=#6F0000;fillColor=#a20025;align=center;verticalAlign=middle;whiteSpace=wrap;rounded=0;shadow=0;glass=0;sketch=0;fontColor=#ffffff;" vertex="1" parent="1">
                    <mxGeometry x="740" y="150" width="100" height="30" as="geometry"/>
                </mxCell>
                <mxCell id="55" value="LISTAGEM DE TODOS OS CURSOS" style="whiteSpace=wrap;html=1;aspect=fixed;shadow=0;glass=0;sketch=0;fillColor=default;" vertex="1" parent="1">
                    <mxGeometry x="750" y="40" width="80" height="80" as="geometry"/>
                </mxCell>
                <mxCell id="56" value="DETALHES DO CURSO" style="whiteSpace=wrap;html=1;aspect=fixed;shadow=0;glass=0;sketch=0;fillColor=default;" vertex="1" parent="1">
                    <mxGeometry x="660" y="204" width="80" height="80" as="geometry"/>
                </mxCell>
                <mxCell id="58" value="LISTA POR CATEGORIA" style="whiteSpace=wrap;html=1;aspect=fixed;shadow=0;glass=0;sketch=0;fillColor=default;" vertex="1" parent="1">
                    <mxGeometry x="840" y="204" width="80" height="80" as="geometry"/>
                </mxCell>
                <mxCell id="60" value="PROMOÇÕES" style="whiteSpace=wrap;html=1;aspect=fixed;shadow=0;glass=0;sketch=0;fillColor=default;" vertex="1" parent="1">
                    <mxGeometry x="750" y="204" width="80" height="80" as="geometry"/>
                </mxCell>
                <mxCell id="61" value="&lt;br&gt;" style="whiteSpace=wrap;html=1;aspect=fixed;shadow=0;glass=0;sketch=0;fillColor=#9933FF;" vertex="1" parent="1">
                    <mxGeometry x="30" y="330" width="280" height="280" as="geometry"/>
                </mxCell>
                <mxCell id="62" value="YOUTUBE" style="text;html=1;strokeColor=#6F0000;fillColor=#a20025;align=center;verticalAlign=middle;whiteSpace=wrap;rounded=0;shadow=0;glass=0;sketch=0;fontColor=#ffffff;" vertex="1" parent="1">
                    <mxGeometry x="150" y="455" width="60" height="30" as="geometry"/>
                </mxCell>
                <mxCell id="64" value="YOUTUBE" style="whiteSpace=wrap;html=1;aspect=fixed;shadow=0;glass=0;sketch=0;fillColor=default;" vertex="1" parent="1">
                    <mxGeometry x="140" y="340" width="80" height="80" as="geometry"/>
                </mxCell>
                <mxCell id="65" value="DETALHES" style="whiteSpace=wrap;html=1;aspect=fixed;shadow=0;glass=0;sketch=0;fillColor=default;" vertex="1" parent="1">
                    <mxGeometry x="140" y="520" width="80" height="80" as="geometry"/>
                </mxCell>
                <mxCell id="66" value="&lt;br&gt;" style="whiteSpace=wrap;html=1;aspect=fixed;shadow=0;glass=0;sketch=0;fillColor=#9933FF;" vertex="1" parent="1">
                    <mxGeometry x="340" y="330" width="280" height="280" as="geometry"/>
                </mxCell>
                <mxCell id="67" value="FERRAMENTAS" style="text;html=1;strokeColor=#6F0000;fillColor=#a20025;align=center;verticalAlign=middle;whiteSpace=wrap;rounded=0;shadow=0;glass=0;sketch=0;fontColor=#ffffff;" vertex="1" parent="1">
                    <mxGeometry x="430" y="455" width="100" height="30" as="geometry"/>
                </mxCell>
                <mxCell id="68" value="FERRAMENTAS" style="whiteSpace=wrap;html=1;aspect=fixed;shadow=0;glass=0;sketch=0;fillColor=default;" vertex="1" parent="1">
                    <mxGeometry x="430" y="340" width="100" height="100" as="geometry"/>
                </mxCell>
                <mxCell id="70" value="DETALHES" style="whiteSpace=wrap;html=1;aspect=fixed;shadow=0;glass=0;sketch=0;fillColor=default;" vertex="1" parent="1">
                    <mxGeometry x="430" y="500" width="100" height="100" as="geometry"/>
                </mxCell>
                <mxCell id="71" value="&lt;br&gt;" style="whiteSpace=wrap;html=1;aspect=fixed;shadow=0;glass=0;sketch=0;fillColor=#9933FF;" vertex="1" parent="1">
                    <mxGeometry x="650" y="330" width="280" height="280" as="geometry"/>
                </mxCell>
                <mxCell id="72" value="CONTATO" style="text;html=1;strokeColor=#6F0000;fillColor=#a20025;align=center;verticalAlign=middle;whiteSpace=wrap;rounded=0;shadow=0;glass=0;sketch=0;fontColor=#ffffff;" vertex="1" parent="1">
                    <mxGeometry x="740" y="455" width="100" height="30" as="geometry"/>
                </mxCell>
                <mxCell id="73" value="CONTATO" style="whiteSpace=wrap;html=1;aspect=fixed;shadow=0;glass=0;sketch=0;fillColor=default;" vertex="1" parent="1">
                    <mxGeometry x="740" y="340" width="100" height="100" as="geometry"/>
                </mxCell>
                <mxCell id="74" value="INFORMAÇÕES DA EMPRESA" style="whiteSpace=wrap;html=1;aspect=fixed;shadow=0;glass=0;sketch=0;fillColor=default;" vertex="1" parent="1">
                    <mxGeometry x="740" y="500" width="100" height="100" as="geometry"/>
                </mxCell>
                <mxCell id="75" value="&lt;br&gt;" style="whiteSpace=wrap;html=1;aspect=fixed;shadow=0;glass=0;sketch=0;fillColor=#9933FF;" vertex="1" parent="1">
                    <mxGeometry x="961" y="210" width="280" height="280" as="geometry"/>
                </mxCell>
                <mxCell id="76" value="PARCERIA" style="text;html=1;strokeColor=#6F0000;fillColor=#a20025;align=center;verticalAlign=middle;whiteSpace=wrap;rounded=0;shadow=0;glass=0;sketch=0;fontColor=#ffffff;" vertex="1" parent="1">
                    <mxGeometry x="1051" y="335" width="100" height="30" as="geometry"/>
                </mxCell>
                <mxCell id="77" value="PARCERIA" style="whiteSpace=wrap;html=1;aspect=fixed;shadow=0;glass=0;sketch=0;fillColor=default;" vertex="1" parent="1">
                    <mxGeometry x="1061" y="230" width="80" height="80" as="geometry"/>
                </mxCell>
                <mxCell id="78" value="DETALHES" style="whiteSpace=wrap;html=1;aspect=fixed;shadow=0;glass=0;sketch=0;fillColor=default;" vertex="1" parent="1">
                    <mxGeometry x="1061" y="405" width="80" height="80" as="geometry"/>
                </mxCell>
            </root>
        </mxGraphModel>
    </diagram>
</mxfile>